---
title: "why winff will not work to convert avi to mpg4"
date: 2009-12-25
forum: Multimedia Software
---

### Post by ArmyRotc-2013 on 2009-12-25
when i try to convert a movie from avi to mpg4, all that comes up under the terminal/conversion page is:

FFmpeg version SVN-r19352-4:0.5+svn20090706-2ubuntu2, Copyright (c) 2000-2009 Fabrice Bellard, et al.
  configuration: --extra-version=4:0.5+svn20090706-2ubuntu2 --prefix=/usr --enable-avfilter --enable-avfilter-lavf --enable-vdpau --enable-bzlib --enable-libgsm --enable-libschroedinger --enable-libspeex --enable-libtheora --enable-libvorbis --enable-pthreads --enable-zlib --disable-stripping --disable-vhook --enable-gpl --enable-postproc --enable-swscale --enable-x11grab --enable-libdc1394 --extra-cflags=-I/build/buildd/ffmpeg-0.5+svn20090706/debian/include --enable-shared --disable-static
  libavutil     49.15. 0 / 49.15. 0
  libavcodec    52.20. 0 / 52.20. 0
  libavformat   52.31. 0 / 52.31. 0
  libavdevice   52. 1. 0 / 52. 1. 0
  libavfilter    0. 4. 0 /  0. 4. 0
  libswscale     0. 7. 1 /  0. 7. 1
  libpostproc   51. 2. 0 / 51. 2. 0
  built on Oct 13 2009 22:15:16, gcc: 4.4.1
[NULL @ 0x85fa5e0]Invalid and inefficient vfw-avi packed B frames detected
Input #0, avi, from '/media/37A4CBCF29595096/Users/Richard/Documents/Richards Stuff/music/movies/2012.2009.HQ.TeleSync.LiNE.XViD.READNFO-FUSION/fusion-2012-xvid/fusion-2012-xvid.avi':
  Duration: 02:22:28.00, start: 0.000000, bitrate: 1376 kb/s
    Stream #0.0: Video: mpeg4, yuv420p, 720x288 [PAR 1:1 DAR 5:2], 25 tbr, 25 tbn, 25 tbc
    Stream #0.1: Audio: mp3, 44100 Hz, stereo, s16, 128 kb/s
Unknown encoder 'libmp3lame'
Press Enter to Continue



i press enter and it exits the page.

are there any suggestions/solutions.

if not, are there any other converters i could use

---

### Post by FakeOutdoorsman on 2009-12-25
See: [HOWTO: Easily enable MP3, MPEG4, AAC, and other restricted encoding in WinFF](http://ubuntuforums.org/showpost.php?p=8298012&postcount=20)

---

